<?xml version="1.0" encoding="utf-8"?>
<!-- Generator: Adobe Illustrator 18.0.0, SVG Export Plug-In . SVG Version: 6.00 Build 0)  -->
<!DOCTYPE svg PUBLIC "-//W3C//DTD SVG 1.1//EN" "http://www.w3.org/Graphics/SVG/1.1/DTD/svg11.dtd">
<svg version="1.1"
	 id="svg7594" inkscape:output_extension="org.inkscape.output.svg.inkscape" sodipodi:version="0.32" sodipodi:docname="hw_box_0.svg" inkscape:version="0.46" xmlns:inkscape="http://www.inkscape.org/namespaces/inkscape" xmlns:rdf="http://www.w3.org/1999/02/22-rdf-syntax-ns#" xmlns:sodipodi="http://sodipodi.sourceforge.net/DTD/sodipodi-0.dtd" xmlns:cc="http://creativecommons.org/ns#" xmlns:dc="http://purl.org/dc/elements/1.1/" xmlns:svg="http://www.w3.org/2000/svg" xmlns:ns1="http://sozi.baierouge.fr"
	 xmlns="http://www.w3.org/2000/svg" xmlns:xlink="http://www.w3.org/1999/xlink" x="0px" y="0px" viewBox="235.1 34.8 490 490"
	 enable-background="new 235.1 34.8 490 490" xml:space="preserve">
<sodipodi:namedview  inkscape:document-units="px" inkscape:pageopacity="0.0" inkscape:window-width="1680" inkscape:guide-bbox="true" inkscape:window-x="-4" inkscape:window-height="1003" inkscape:current-layer="g11262" inkscape:window-y="-4" inkscape:pageshadow="2" showguides="true" inkscape:cy="7" inkscape:cx="7" borderopacity="1.0" showgrid="false" inkscape:zoom="57.642857" pagecolor="#ffffff" bordercolor="#666666" id="base">
	</sodipodi:namedview>
<g id="layer1" inkscape:groupmode="layer" inkscape:label="Calque 1">
	<g id="g11262" transform="translate(-279.11 -276.32)">
		<g id="g5682" transform="translate(-.0115 .06506)">
			<path id="path7247" d="M553.9,466.5l204.8-102.4l205.2,102.4L758.7,568.9L553.9,466.5z"/>
			<path id="path7243" fill="#EEE6D2" d="M553.9,671.3l204.8,102.4V568.9L553.9,466.5V671.3z"/>
			
				<radialGradient id="path7245_1_" cx="514.1176" cy="536.3945" r="5.5023" gradientTransform="matrix(20.488 0 0 -29.8004 -9671.9785 16604.8301)" gradientUnits="userSpaceOnUse">
				<stop  offset="0" style="stop-color:#F3EEDF"/>
				<stop  offset="1" style="stop-color:#D5C391"/>
			</radialGradient>
			<path id="path7245" fill="url(#path7245_1_)" d="M758.7,773.7l205.2-102.4V466.5L758.7,568.9V773.7z"/>
			<path id="path7249" d="M757.9,353.7l-3.6,1.2L549.5,457.3l4.8,18.8h122.4h2.4h1.6l184.8-82.4l28.8-12.4l-31.2-6.4l-102.4-20
				L757.9,353.7z M761.9,374.9l64.8,13.6l-150,67.6h-1.2h-80L761.9,374.9z"/>
			<path id="path5666" sodipodi:nodetypes="ccccc" fill="#EEE6D2" d="M763.9,566.1l-61.6-122.8l204.8-102.4l61.6,122.8L763.9,566.1z
				"/>
			<path id="path5672" fill="#EEE6D2" d="M546.7,456.1h122.8l184.4-82l-102.4-20.4L546.7,456.1z"/>
			<path id="path7251" d="M906.7,329.7l-8.8,5.2L693.1,437.3l-8.8,4l3.6,9.6l61.6,122.8l4.8,8.8l8.8-5.2l204.8-102.4l8.8-4l-3.6-8.4
				l-61.2-124L906.7,329.7z M896.7,357.3l52.8,105.2l-186.4,92.4l-51.2-105.2L896.7,357.3z"/>
			<path id="path7253" d="M910.7,316.1l-18.8,10l-64,36.4l-63.6-17.6l-7.6-2.4l-7.2,3.6l-204,102.4l-11.2,5.2v12.4v204.8v12.8
				l11.2,6l204,101.2l9.6,5.2l8.8-5.2l205.2-101.2l11.2-6v-12.8V466.1v-3.6l-2.4-5.2l-61.2-122.4L910.7,316.1z M894.3,370.9
				l50,101.6v186l-185.2,92.4l-184.8-92.4v-180l186.4-92.4l63.6,17.6l8.8,2.4l7.6-3.6L894.3,370.9z"/>
		</g>
	</g>
</g>
</svg>
